<?xml version="1.0" encoding="UTF-8" standalone="no"?>
<svg
   aria-hidden="true"
   focusable="false"
   role="img"
   viewBox="0 0 512 512"
   version="1.1"
   id="svg2"
   xmlns="http://www.w3.org/2000/svg"
   xmlns:svg="http://www.w3.org/2000/svg">
  <path
     fill="#f7931a"
     d="M 231.69842,501.67 C 86.400419,291.031 59.430419,269.413 59.430419,192 59.430419,85.961 145.39142,4.5782031e-8 251.43042,4.5782031e-8 357.46942,4.5782031e-8 443.43042,85.961 443.43042,192 c 0,77.413 -26.97,99.031 -172.268,309.67 -9.535,13.774 -29.93,13.773 -39.464,0 z"
     id="path1" />
  <g
     transform="translate(-83, 40) rotate(-14 0 0) scale(14 14)"
     id="g2">
    <path
       fill="#ffffff"
       fill-rule="nonzero"
       d="m 27.307934,15.046965 c 0.314,-2.096 -1.283,-3.223 -3.465,-3.975 l 0.708,-2.8399993 -1.728,-0.43 -0.69,2.7649993 c -0.454,-0.114 -0.92,-0.22 -1.385,-0.326 l 0.695,-2.7829993 -1.728,-0.431 -0.708,2.839 c -0.376,-0.086 -0.746,-0.17 -1.104,-0.26 l 0.002,-0.009 -2.384,-0.595 -0.46,1.8459993 c 0,0 1.283,0.294 1.256,0.312 0.7,0.175 0.826,0.638 0.805,1.006 l -0.806,3.235 c 0.048,0.012 0.11,0.03 0.18,0.057 l -0.183,-0.045 -1.13,4.532 c -0.086,0.212 -0.303,0.531 -0.793,0.41 0.018,0.025 -1.256,-0.313 -1.256,-0.313 l -0.858,1.978 2.25,0.561 c 0.418,0.105 0.828,0.215 1.231,0.318 l -0.715,2.872 1.727,0.43 0.708,-2.84 c 0.472,0.127 0.93,0.245 1.378,0.357 l -0.706,2.828 1.728,0.43 0.715,-2.866 c 2.948,0.558 5.164,0.333 6.097,-2.333 0.752,-2.146 -0.037,-3.385 -1.588,-4.192 1.13,-0.26 1.98,-1.003 2.207,-2.538 z m -3.95,5.538 c -0.533,2.147 -4.148,0.986 -5.32,0.695 l 0.95,-3.805 c 1.172,0.293 4.929,0.872 4.37,3.11 z m 0.535,-5.569 c -0.487,1.953 -3.495,0.96 -4.47,0.717 l 0.86,-3.45 c 0.975,0.243 4.118,0.696 3.61,2.733 z"
       id="path2" />
  </g>
</svg>
